# xmcd CD database file
#
# Track frame offsets:
#	150
#	28412
#	52985
#	81382
#
# Disc length: 1510 seconds
#
# Revision: 0
# Processed by: cddbd v1.5PL3 Copyright (c) Steve Scherf et al.
# Submitted via: CDex 1.51
#
DISCID=2f05e404
DTITLE=西村ちなみ - 円盤皇女ワるきゅーレ 十二月の夜想曲 キャラクターソング ハイドラ
DYEAR=2003
DGENRE=Vocal
TTITLE0=星たちのレジェンド
TTITLE1=星たちのレジェンド (Last Train "chi-ki" Mix)
TTITLE2=星たちのレジェンド (オリジナル・カラオケ)
TTITLE3=落語「ヴァルハラ日和」
EXTD=YEAR: 2003-12-03
EXTT0=
EXTT1=
EXTT2=
EXTT3=
PLAYORDER=
